# xmcd
#
# Track frame offsets:
#	150
#	18989
#	34073
#	48337
#	65838
#	83247
#	97659
#	113278
#	124984
#	139551
#	155677
#	173838
#	189670
#	200922
#	212728
#	225394
#	241315
#	256103
#	267132
#	283583
#	294458
#	308266
#
# Disc length: 4289 seconds
#
# Revision: 1
# Processed by: cddbd v1.4PL0 Copyright (c) Steve Scherf et al.
# Submitted via: audiograbber 1.81.02
#
DISCID=2b10bf16
DTITLE=Fausto Papetti - Woman in love
DYEAR=2001
DGENRE=Ballad
TTITLE0=My way
TTITLE1=Emmanuelle
TTITLE2=Windmills of your mind
TTITLE3=Aranjues mon amour
TTITLE4=Just the way your are
TTITLE5=I just call to say I love you
TTITLE6=Blue eyes
TTITLE7=Georgia on my mind
TTITLE8=Woman in love
TTITLE9=Feelings
TTITLE10=Hard to say I'm sorry
TTITLE11=The man I love
TTITLE12=The shadow of your smile
TTITLE13=Strangers in the night
TTITLE14=Misty
TTITLE15=Yesterday
TTITLE16=Theme from paradise
TTITLE17=In a sentimental mood
TTITLE18=Honesty
TTITLE19=Summertime
TTITLE20=Nocturno de harlem
TTITLE21=What a wonderful world
EXTD=
EXTT0=
EXTT1=
EXTT2=
EXTT3=
EXTT4=
EXTT5=
EXTT6=
EXTT7=
EXTT8=
EXTT9=
EXTT10=
EXTT11=
EXTT12=
EXTT13=
EXTT14=
EXTT15=
EXTT16=
EXTT17=
EXTT18=
EXTT19=
EXTT20=
EXTT21=
PLAYORDER=
